<svg xmlns="http://www.w3.org/2000/svg" x="0px" y="0px"
width="100" height="100"
viewBox="0 0 100 100">
<circle cx="50" cy="49.082" r="29" fill="#4b4dff"></circle><path fill="#4343bf" d="M50,81.082c-17.645,0-32-14.355-32-32s14.355-32,32-32s32,14.355,32,32S67.645,81.082,50,81.082z M50,23.082c-14.337,0-26,11.663-26,26s11.663,26,26,26s26-11.663,26-26S64.337,23.082,50,23.082z"></path><path fill="#edf7f5" d="M52.956,55.798h6.639l1.043-6.744h-7.683v-3.686c0-2.802,0.916-5.286,3.536-5.286h4.212v-5.885 c-0.74-0.1-2.305-0.319-5.262-0.319c-6.175,0-9.794,3.261-9.794,10.69v4.487h-6.347v6.744h6.347v20.008 c1.257,0.189,2.53,0.317,3.837,0.317c1.182,0,2.335-0.108,3.473-0.262L52.956,55.798L52.956,55.798z"></path><path fill="#3abcf8" d="M49.984,84.919c-9.176,0-17.864-3.646-24.52-10.302l7.07-7.07 c4.859,4.858,11.207,7.508,17.845,7.368c6.646-0.106,13.041-2.898,18.004-7.862l7.072,7.07 c-6.81,6.811-15.658,10.643-24.916,10.791C50.355,84.917,50.169,84.919,49.984,84.919z"></path>
</svg>